<mxfile host="app.diagrams.net" modified="2023-03-27T22:04:48.377Z" agent="Mozilla/5.0 (Macintosh; Intel Mac OS X 10_15_7) AppleWebKit/537.36 (KHTML, like Gecko) Chrome/111.0.0.0 Safari/537.36" etag="q2m50owotzRlCt8h24Ja" version="21.1.1" type="device">
  <diagram id="C5RBs43oDa-KdzZeNtuy" name="Page-1">
    <mxGraphModel dx="1122" dy="1931" grid="1" gridSize="10" guides="1" tooltips="1" connect="1" arrows="1" fold="1" page="1" pageScale="1" pageWidth="827" pageHeight="1169" math="0" shadow="0">
      <root>
        <mxCell id="WIyWlLk6GJQsqaUBKTNV-0" />
        <mxCell id="WIyWlLk6GJQsqaUBKTNV-1" parent="WIyWlLk6GJQsqaUBKTNV-0" />
        <mxCell id="e9tr2TYBYNp6NO9qrmjy-53" style="edgeStyle=orthogonalEdgeStyle;rounded=0;orthogonalLoop=1;jettySize=auto;html=1;exitX=0.5;exitY=1;exitDx=0;exitDy=0;strokeWidth=2;endArrow=block;endFill=1;entryX=0.5;entryY=1;entryDx=0;entryDy=0;" edge="1" parent="WIyWlLk6GJQsqaUBKTNV-1" target="e9tr2TYBYNp6NO9qrmjy-57">
          <mxGeometry relative="1" as="geometry">
            <mxPoint x="624" y="270" as="targetPoint" />
            <mxPoint x="218" y="459" as="sourcePoint" />
            <Array as="points">
              <mxPoint x="214" y="459" />
              <mxPoint x="214" y="479" />
              <mxPoint x="540" y="479" />
              <mxPoint x="540" y="190" />
              <mxPoint x="620" y="190" />
              <mxPoint x="620" y="189" />
            </Array>
          </mxGeometry>
        </mxCell>
        <mxCell id="WIyWlLk6GJQsqaUBKTNV-3" value="&lt;div style=&quot;&quot;&gt;&lt;br&gt;&lt;/div&gt;" style="rounded=1;whiteSpace=wrap;html=1;fontSize=12;glass=0;strokeWidth=1;shadow=0;fillColor=#f5f5f5;strokeColor=#666666;align=center;verticalAlign=top;rotation=0;flipV=0;fontColor=#333333;" parent="WIyWlLk6GJQsqaUBKTNV-1" vertex="1">
          <mxGeometry x="154" y="169" width="120" height="290" as="geometry" />
        </mxCell>
        <mxCell id="e9tr2TYBYNp6NO9qrmjy-54" style="edgeStyle=orthogonalEdgeStyle;rounded=0;orthogonalLoop=1;jettySize=auto;html=1;exitX=0.5;exitY=1;exitDx=0;exitDy=0;strokeWidth=2;endArrow=block;endFill=1;entryX=0.5;entryY=1;entryDx=0;entryDy=0;" edge="1" parent="WIyWlLk6GJQsqaUBKTNV-1" source="e9tr2TYBYNp6NO9qrmjy-0" target="e9tr2TYBYNp6NO9qrmjy-57">
          <mxGeometry relative="1" as="geometry">
            <mxPoint x="580" y="270" as="targetPoint" />
            <Array as="points">
              <mxPoint x="400" y="400" />
              <mxPoint x="540" y="400" />
              <mxPoint x="540" y="190" />
              <mxPoint x="620" y="190" />
              <mxPoint x="620" y="189" />
            </Array>
          </mxGeometry>
        </mxCell>
        <mxCell id="e9tr2TYBYNp6NO9qrmjy-0" value="" style="rounded=1;whiteSpace=wrap;html=1;fontSize=12;glass=0;strokeWidth=1;shadow=0;verticalAlign=top;fillColor=#f5f5f5;strokeColor=#666666;fontColor=#333333;" vertex="1" parent="WIyWlLk6GJQsqaUBKTNV-1">
          <mxGeometry x="340" y="169" width="120" height="161" as="geometry" />
        </mxCell>
        <mxCell id="e9tr2TYBYNp6NO9qrmjy-27" style="edgeStyle=orthogonalEdgeStyle;rounded=0;orthogonalLoop=1;jettySize=auto;html=1;exitX=0.5;exitY=1;exitDx=0;exitDy=0;endArrow=none;endFill=0;strokeWidth=2;" edge="1" parent="WIyWlLk6GJQsqaUBKTNV-1" source="e9tr2TYBYNp6NO9qrmjy-3" target="e9tr2TYBYNp6NO9qrmjy-6">
          <mxGeometry relative="1" as="geometry" />
        </mxCell>
        <mxCell id="e9tr2TYBYNp6NO9qrmjy-3" value="Conv1" style="rounded=1;whiteSpace=wrap;html=1;fillColor=#fad7ac;strokeColor=#b46504;" vertex="1" parent="WIyWlLk6GJQsqaUBKTNV-1">
          <mxGeometry x="173" y="195" width="80" height="20" as="geometry" />
        </mxCell>
        <mxCell id="e9tr2TYBYNp6NO9qrmjy-28" style="edgeStyle=orthogonalEdgeStyle;rounded=0;orthogonalLoop=1;jettySize=auto;html=1;exitX=0.5;exitY=1;exitDx=0;exitDy=0;entryX=0.5;entryY=0;entryDx=0;entryDy=0;endArrow=none;endFill=0;strokeWidth=2;" edge="1" parent="WIyWlLk6GJQsqaUBKTNV-1" source="e9tr2TYBYNp6NO9qrmjy-6" target="e9tr2TYBYNp6NO9qrmjy-7">
          <mxGeometry relative="1" as="geometry" />
        </mxCell>
        <mxCell id="e9tr2TYBYNp6NO9qrmjy-6" value="Conv2" style="rounded=1;whiteSpace=wrap;html=1;fillColor=#fad7ac;strokeColor=#b46504;" vertex="1" parent="WIyWlLk6GJQsqaUBKTNV-1">
          <mxGeometry x="173" y="225" width="80" height="20" as="geometry" />
        </mxCell>
        <mxCell id="e9tr2TYBYNp6NO9qrmjy-37" style="edgeStyle=orthogonalEdgeStyle;rounded=0;orthogonalLoop=1;jettySize=auto;html=1;exitX=0.5;exitY=1;exitDx=0;exitDy=0;entryX=0.5;entryY=0;entryDx=0;entryDy=0;endArrow=none;endFill=0;strokeWidth=2;" edge="1" parent="WIyWlLk6GJQsqaUBKTNV-1" source="e9tr2TYBYNp6NO9qrmjy-7" target="e9tr2TYBYNp6NO9qrmjy-23">
          <mxGeometry relative="1" as="geometry" />
        </mxCell>
        <mxCell id="e9tr2TYBYNp6NO9qrmjy-7" value="Conv3" style="rounded=1;whiteSpace=wrap;html=1;fillColor=#fad7ac;strokeColor=#b46504;" vertex="1" parent="WIyWlLk6GJQsqaUBKTNV-1">
          <mxGeometry x="174" y="255" width="80" height="20" as="geometry" />
        </mxCell>
        <mxCell id="e9tr2TYBYNp6NO9qrmjy-40" style="edgeStyle=orthogonalEdgeStyle;rounded=0;orthogonalLoop=1;jettySize=auto;html=1;exitX=0.5;exitY=1;exitDx=0;exitDy=0;entryX=0.5;entryY=0;entryDx=0;entryDy=0;strokeWidth=2;endArrow=none;endFill=0;" edge="1" parent="WIyWlLk6GJQsqaUBKTNV-1" source="e9tr2TYBYNp6NO9qrmjy-9" target="e9tr2TYBYNp6NO9qrmjy-10">
          <mxGeometry relative="1" as="geometry" />
        </mxCell>
        <mxCell id="e9tr2TYBYNp6NO9qrmjy-9" value="Conv5" style="rounded=1;whiteSpace=wrap;html=1;fillColor=#fad7ac;strokeColor=#b46504;" vertex="1" parent="WIyWlLk6GJQsqaUBKTNV-1">
          <mxGeometry x="173" y="314" width="80" height="20" as="geometry" />
        </mxCell>
        <mxCell id="e9tr2TYBYNp6NO9qrmjy-41" style="edgeStyle=orthogonalEdgeStyle;rounded=0;orthogonalLoop=1;jettySize=auto;html=1;exitX=0.5;exitY=1;exitDx=0;exitDy=0;entryX=0.5;entryY=0;entryDx=0;entryDy=0;endArrow=block;endFill=1;strokeWidth=2;" edge="1" parent="WIyWlLk6GJQsqaUBKTNV-1" source="e9tr2TYBYNp6NO9qrmjy-10" target="e9tr2TYBYNp6NO9qrmjy-11">
          <mxGeometry relative="1" as="geometry" />
        </mxCell>
        <mxCell id="e9tr2TYBYNp6NO9qrmjy-10" value="Conv6" style="rounded=1;whiteSpace=wrap;html=1;fillColor=#fad7ac;strokeColor=#b46504;" vertex="1" parent="WIyWlLk6GJQsqaUBKTNV-1">
          <mxGeometry x="173" y="345" width="80" height="20" as="geometry" />
        </mxCell>
        <mxCell id="e9tr2TYBYNp6NO9qrmjy-42" style="edgeStyle=orthogonalEdgeStyle;rounded=0;orthogonalLoop=1;jettySize=auto;html=1;exitX=0.5;exitY=1;exitDx=0;exitDy=0;entryX=0.5;entryY=0;entryDx=0;entryDy=0;endArrow=none;endFill=0;strokeWidth=2;" edge="1" parent="WIyWlLk6GJQsqaUBKTNV-1" source="e9tr2TYBYNp6NO9qrmjy-11" target="e9tr2TYBYNp6NO9qrmjy-12">
          <mxGeometry relative="1" as="geometry" />
        </mxCell>
        <mxCell id="e9tr2TYBYNp6NO9qrmjy-11" value="Linear1" style="rounded=1;whiteSpace=wrap;html=1;fillColor=#cdeb8b;strokeColor=#36393d;" vertex="1" parent="WIyWlLk6GJQsqaUBKTNV-1">
          <mxGeometry x="174" y="392" width="80" height="20" as="geometry" />
        </mxCell>
        <mxCell id="e9tr2TYBYNp6NO9qrmjy-12" value="Linear2" style="rounded=1;whiteSpace=wrap;html=1;fillColor=#cdeb8b;strokeColor=#36393d;" vertex="1" parent="WIyWlLk6GJQsqaUBKTNV-1">
          <mxGeometry x="173" y="421" width="80" height="20" as="geometry" />
        </mxCell>
        <mxCell id="e9tr2TYBYNp6NO9qrmjy-13" value="" style="whiteSpace=wrap;html=1;aspect=fixed;fillColor=#b1ddf0;strokeColor=#10739e;strokeWidth=4;" vertex="1" parent="WIyWlLk6GJQsqaUBKTNV-1">
          <mxGeometry x="133" y="-28" width="100" height="100" as="geometry" />
        </mxCell>
        <mxCell id="e9tr2TYBYNp6NO9qrmjy-14" value="" style="whiteSpace=wrap;html=1;aspect=fixed;fillColor=#b1ddf0;strokeColor=#10739e;strokeWidth=4;" vertex="1" parent="WIyWlLk6GJQsqaUBKTNV-1">
          <mxGeometry x="143" y="-18" width="100" height="100" as="geometry" />
        </mxCell>
        <mxCell id="e9tr2TYBYNp6NO9qrmjy-15" value="" style="whiteSpace=wrap;html=1;aspect=fixed;fillColor=#b1ddf0;strokeColor=#10739e;strokeWidth=4;" vertex="1" parent="WIyWlLk6GJQsqaUBKTNV-1">
          <mxGeometry x="154" y="-8" width="100" height="100" as="geometry" />
        </mxCell>
        <mxCell id="e9tr2TYBYNp6NO9qrmjy-16" value="&lt;b&gt;&lt;font style=&quot;font-size: 14px;&quot;&gt;Skin-Lesion Image Data&lt;/font&gt;&lt;/b&gt;" style="whiteSpace=wrap;html=1;aspect=fixed;fillColor=#b1ddf0;strokeColor=#10739e;strokeWidth=4;" vertex="1" parent="WIyWlLk6GJQsqaUBKTNV-1">
          <mxGeometry x="163" y="2" width="100" height="100" as="geometry" />
        </mxCell>
        <mxCell id="e9tr2TYBYNp6NO9qrmjy-17" value="" style="endArrow=block;html=1;rounded=0;exitX=0.5;exitY=1;exitDx=0;exitDy=0;strokeWidth=2;endFill=1;" edge="1" parent="WIyWlLk6GJQsqaUBKTNV-1" source="e9tr2TYBYNp6NO9qrmjy-16">
          <mxGeometry width="50" height="50" relative="1" as="geometry">
            <mxPoint x="207" y="102" as="sourcePoint" />
            <mxPoint x="213" y="170" as="targetPoint" />
          </mxGeometry>
        </mxCell>
        <mxCell id="e9tr2TYBYNp6NO9qrmjy-36" style="edgeStyle=orthogonalEdgeStyle;rounded=0;orthogonalLoop=1;jettySize=auto;html=1;exitX=0.5;exitY=1;exitDx=0;exitDy=0;endArrow=block;endFill=1;strokeWidth=2;entryX=0.5;entryY=0;entryDx=0;entryDy=0;" edge="1" parent="WIyWlLk6GJQsqaUBKTNV-1" source="e9tr2TYBYNp6NO9qrmjy-18" target="e9tr2TYBYNp6NO9qrmjy-0">
          <mxGeometry relative="1" as="geometry">
            <mxPoint x="400" y="150" as="targetPoint" />
          </mxGeometry>
        </mxCell>
        <mxCell id="e9tr2TYBYNp6NO9qrmjy-18" value="&lt;font style=&quot;font-size: 14px;&quot;&gt;Meta-Data&lt;/font&gt;" style="swimlane;fontStyle=1;childLayout=stackLayout;horizontal=1;startSize=30;horizontalStack=0;resizeParent=1;resizeParentMax=0;resizeLast=0;collapsible=1;marginBottom=0;whiteSpace=wrap;html=1;fillColor=#ffcccc;strokeColor=#36393d;" vertex="1" parent="WIyWlLk6GJQsqaUBKTNV-1">
          <mxGeometry x="330" y="-18" width="140" height="120" as="geometry" />
        </mxCell>
        <mxCell id="e9tr2TYBYNp6NO9qrmjy-19" value="Patient #1&amp;nbsp; &amp;nbsp; &amp;nbsp;..." style="text;strokeColor=#36393d;fillColor=#ffcccc;align=left;verticalAlign=middle;spacingLeft=4;spacingRight=4;overflow=hidden;points=[[0,0.5],[1,0.5]];portConstraint=eastwest;rotatable=0;whiteSpace=wrap;html=1;fontStyle=1;" vertex="1" parent="e9tr2TYBYNp6NO9qrmjy-18">
          <mxGeometry y="30" width="140" height="30" as="geometry" />
        </mxCell>
        <mxCell id="e9tr2TYBYNp6NO9qrmjy-20" value="Patient #2&amp;nbsp; &amp;nbsp; &amp;nbsp;..." style="text;strokeColor=#36393d;fillColor=#ffcccc;align=left;verticalAlign=middle;spacingLeft=4;spacingRight=4;overflow=hidden;points=[[0,0.5],[1,0.5]];portConstraint=eastwest;rotatable=0;whiteSpace=wrap;html=1;fontStyle=1;" vertex="1" parent="e9tr2TYBYNp6NO9qrmjy-18">
          <mxGeometry y="60" width="140" height="30" as="geometry" />
        </mxCell>
        <mxCell id="e9tr2TYBYNp6NO9qrmjy-21" value="..." style="text;strokeColor=#36393d;fillColor=#ffcccc;align=left;verticalAlign=middle;spacingLeft=4;spacingRight=4;overflow=hidden;points=[[0,0.5],[1,0.5]];portConstraint=eastwest;rotatable=0;whiteSpace=wrap;html=1;" vertex="1" parent="e9tr2TYBYNp6NO9qrmjy-18">
          <mxGeometry y="90" width="140" height="30" as="geometry" />
        </mxCell>
        <mxCell id="e9tr2TYBYNp6NO9qrmjy-39" style="edgeStyle=orthogonalEdgeStyle;rounded=0;orthogonalLoop=1;jettySize=auto;html=1;exitX=0.5;exitY=1;exitDx=0;exitDy=0;entryX=0.5;entryY=0;entryDx=0;entryDy=0;strokeWidth=2;endArrow=none;endFill=0;" edge="1" parent="WIyWlLk6GJQsqaUBKTNV-1" source="e9tr2TYBYNp6NO9qrmjy-23" target="e9tr2TYBYNp6NO9qrmjy-9">
          <mxGeometry relative="1" as="geometry" />
        </mxCell>
        <mxCell id="e9tr2TYBYNp6NO9qrmjy-23" value="Conv4" style="rounded=1;whiteSpace=wrap;html=1;fillColor=#fad7ac;strokeColor=#b46504;" vertex="1" parent="WIyWlLk6GJQsqaUBKTNV-1">
          <mxGeometry x="174" y="285" width="80" height="20" as="geometry" />
        </mxCell>
        <mxCell id="e9tr2TYBYNp6NO9qrmjy-34" value="&lt;b style=&quot;border-color: var(--border-color); color: rgb(51, 51, 51); font-size: 15px;&quot;&gt;Convolutional Neural Network&lt;/b&gt;" style="text;html=1;strokeColor=none;fillColor=none;align=center;verticalAlign=middle;whiteSpace=wrap;rounded=0;direction=west;rotation=270;fontSize=15;" vertex="1" parent="WIyWlLk6GJQsqaUBKTNV-1">
          <mxGeometry x="30" y="299" width="203" height="30" as="geometry" />
        </mxCell>
        <mxCell id="e9tr2TYBYNp6NO9qrmjy-50" style="edgeStyle=orthogonalEdgeStyle;rounded=0;orthogonalLoop=1;jettySize=auto;html=1;exitX=0.5;exitY=1;exitDx=0;exitDy=0;entryX=0.5;entryY=0;entryDx=0;entryDy=0;strokeWidth=2;endArrow=none;endFill=0;" edge="1" parent="WIyWlLk6GJQsqaUBKTNV-1" source="e9tr2TYBYNp6NO9qrmjy-44" target="e9tr2TYBYNp6NO9qrmjy-45">
          <mxGeometry relative="1" as="geometry" />
        </mxCell>
        <mxCell id="e9tr2TYBYNp6NO9qrmjy-44" value="Linear" style="rounded=1;whiteSpace=wrap;html=1;fillColor=#cdeb8b;strokeColor=#36393d;" vertex="1" parent="WIyWlLk6GJQsqaUBKTNV-1">
          <mxGeometry x="360" y="194" width="80" height="20" as="geometry" />
        </mxCell>
        <mxCell id="e9tr2TYBYNp6NO9qrmjy-51" style="edgeStyle=orthogonalEdgeStyle;rounded=0;orthogonalLoop=1;jettySize=auto;html=1;exitX=0.5;exitY=1;exitDx=0;exitDy=0;entryX=0.5;entryY=0;entryDx=0;entryDy=0;strokeWidth=2;endArrow=none;endFill=0;" edge="1" parent="WIyWlLk6GJQsqaUBKTNV-1" source="e9tr2TYBYNp6NO9qrmjy-45" target="e9tr2TYBYNp6NO9qrmjy-46">
          <mxGeometry relative="1" as="geometry" />
        </mxCell>
        <mxCell id="e9tr2TYBYNp6NO9qrmjy-45" value="&lt;font style=&quot;font-size: 10px;&quot;&gt;Batch-Norm&lt;/font&gt;" style="rounded=1;whiteSpace=wrap;html=1;fillColor=#ffff88;strokeColor=#36393d;" vertex="1" parent="WIyWlLk6GJQsqaUBKTNV-1">
          <mxGeometry x="370" y="224" width="60" height="20" as="geometry" />
        </mxCell>
        <mxCell id="e9tr2TYBYNp6NO9qrmjy-52" style="edgeStyle=orthogonalEdgeStyle;rounded=0;orthogonalLoop=1;jettySize=auto;html=1;exitX=0.5;exitY=1;exitDx=0;exitDy=0;entryX=0.5;entryY=0;entryDx=0;entryDy=0;strokeWidth=2;endArrow=none;endFill=0;" edge="1" parent="WIyWlLk6GJQsqaUBKTNV-1" source="e9tr2TYBYNp6NO9qrmjy-46" target="e9tr2TYBYNp6NO9qrmjy-47">
          <mxGeometry relative="1" as="geometry" />
        </mxCell>
        <mxCell id="e9tr2TYBYNp6NO9qrmjy-46" value="ReLU" style="rounded=1;whiteSpace=wrap;html=1;fillColor=#cce5ff;strokeColor=#36393d;fontSize=10;" vertex="1" parent="WIyWlLk6GJQsqaUBKTNV-1">
          <mxGeometry x="370" y="254" width="60" height="20" as="geometry" />
        </mxCell>
        <mxCell id="e9tr2TYBYNp6NO9qrmjy-47" value="Dropout" style="rounded=1;whiteSpace=wrap;html=1;fillColor=#e1d5e7;strokeColor=#9673a6;fontSize=10;" vertex="1" parent="WIyWlLk6GJQsqaUBKTNV-1">
          <mxGeometry x="370" y="284" width="60" height="20" as="geometry" />
        </mxCell>
        <mxCell id="e9tr2TYBYNp6NO9qrmjy-49" value="&lt;meta charset=&quot;utf-8&quot; style=&quot;font-size: 16px;&quot;&gt;&lt;b style=&quot;border-color: var(--border-color); color: rgb(51, 51, 51); font-family: Helvetica; font-size: 16px; font-style: normal; font-variant-ligatures: normal; font-variant-caps: normal; letter-spacing: normal; orphans: 2; text-align: center; text-indent: 0px; text-transform: none; widows: 2; word-spacing: 0px; -webkit-text-stroke-width: 0px; background-color: rgb(251, 251, 251); text-decoration-thickness: initial; text-decoration-style: initial; text-decoration-color: initial;&quot;&gt;Multi-Layer Perceptron&lt;/b&gt;" style="text;html=1;strokeColor=none;fillColor=none;align=center;verticalAlign=middle;whiteSpace=wrap;rounded=0;rotation=270;fontSize=16;" vertex="1" parent="WIyWlLk6GJQsqaUBKTNV-1">
          <mxGeometry x="249" y="239" width="140" height="30" as="geometry" />
        </mxCell>
        <mxCell id="e9tr2TYBYNp6NO9qrmjy-55" value="&lt;b style=&quot;font-size: 10px;&quot;&gt;512 Node Output&lt;/b&gt;" style="text;html=1;strokeColor=none;fillColor=none;align=center;verticalAlign=middle;whiteSpace=wrap;rounded=0;fontStyle=2;fontSize=10;" vertex="1" parent="WIyWlLk6GJQsqaUBKTNV-1">
          <mxGeometry x="330" y="474" width="120" height="30" as="geometry" />
        </mxCell>
        <mxCell id="e9tr2TYBYNp6NO9qrmjy-56" value="&lt;b style=&quot;font-size: 10px;&quot;&gt;256 Node Output&lt;/b&gt;" style="text;html=1;strokeColor=none;fillColor=none;align=center;verticalAlign=middle;whiteSpace=wrap;rounded=0;fontStyle=2;fontSize=10;" vertex="1" parent="WIyWlLk6GJQsqaUBKTNV-1">
          <mxGeometry x="400" y="395" width="120" height="30" as="geometry" />
        </mxCell>
        <mxCell id="e9tr2TYBYNp6NO9qrmjy-57" value="" style="rounded=1;whiteSpace=wrap;html=1;direction=south;fillColor=#eeeeee;strokeColor=#36393d;" vertex="1" parent="WIyWlLk6GJQsqaUBKTNV-1">
          <mxGeometry x="630" y="89" width="90" height="200" as="geometry" />
        </mxCell>
        <mxCell id="e9tr2TYBYNp6NO9qrmjy-60" value="Concatenate CNN and MLP Output" style="text;html=1;strokeColor=none;fillColor=none;align=center;verticalAlign=middle;whiteSpace=wrap;rounded=0;fontStyle=3;fontSize=11;" vertex="1" parent="WIyWlLk6GJQsqaUBKTNV-1">
          <mxGeometry x="570" y="322" width="60" height="30" as="geometry" />
        </mxCell>
        <mxCell id="e9tr2TYBYNp6NO9qrmjy-61" value="" style="rhombus;whiteSpace=wrap;html=1;fillColor=#000000;strokeColor=#A50040;fontColor=#ffffff;" vertex="1" parent="WIyWlLk6GJQsqaUBKTNV-1">
          <mxGeometry x="514" y="314" width="51" height="46" as="geometry" />
        </mxCell>
        <mxCell id="e9tr2TYBYNp6NO9qrmjy-65" value="&lt;b style=&quot;font-size: 10px;&quot;&gt;768 Node Output&lt;/b&gt;" style="text;html=1;strokeColor=none;fillColor=none;align=center;verticalAlign=middle;whiteSpace=wrap;rounded=0;fontStyle=2;fontSize=10;rotation=270;" vertex="1" parent="WIyWlLk6GJQsqaUBKTNV-1">
          <mxGeometry x="469" y="233.5" width="120" height="30" as="geometry" />
        </mxCell>
        <mxCell id="e9tr2TYBYNp6NO9qrmjy-71" style="edgeStyle=orthogonalEdgeStyle;rounded=0;orthogonalLoop=1;jettySize=auto;html=1;exitX=0.5;exitY=1;exitDx=0;exitDy=0;entryX=0.5;entryY=0;entryDx=0;entryDy=0;strokeWidth=2;endArrow=none;endFill=0;" edge="1" parent="WIyWlLk6GJQsqaUBKTNV-1" source="e9tr2TYBYNp6NO9qrmjy-67" target="e9tr2TYBYNp6NO9qrmjy-70">
          <mxGeometry relative="1" as="geometry" />
        </mxCell>
        <mxCell id="e9tr2TYBYNp6NO9qrmjy-67" value="&lt;font style=&quot;font-size: 14px;&quot;&gt;Linear&lt;/font&gt;" style="rounded=1;whiteSpace=wrap;html=1;fillColor=#cdeb8b;strokeColor=#36393d;rotation=270;" vertex="1" parent="WIyWlLk6GJQsqaUBKTNV-1">
          <mxGeometry x="607.13" y="173.5" width="96.75" height="31" as="geometry" />
        </mxCell>
        <mxCell id="e9tr2TYBYNp6NO9qrmjy-70" value="&lt;font style=&quot;font-size: 14px;&quot;&gt;Sigmoid&lt;/font&gt;" style="rounded=1;whiteSpace=wrap;html=1;fillColor=#b1ddf0;strokeColor=#10739e;rotation=270;" vertex="1" parent="WIyWlLk6GJQsqaUBKTNV-1">
          <mxGeometry x="669.19" y="173.5" width="58.38" height="31" as="geometry" />
        </mxCell>
        <mxCell id="e9tr2TYBYNp6NO9qrmjy-72" value="Output Layer" style="text;html=1;strokeColor=none;fillColor=none;align=center;verticalAlign=middle;whiteSpace=wrap;rounded=0;fontSize=15;fontStyle=1" vertex="1" parent="WIyWlLk6GJQsqaUBKTNV-1">
          <mxGeometry x="643.88" y="52" width="60" height="30" as="geometry" />
        </mxCell>
      </root>
    </mxGraphModel>
  </diagram>
</mxfile>
